<svg xmlns="http://www.w3.org/2000/svg" width="26.569" height="26.339" viewBox="0 0 26.569 26.339">
    <g id="Group_14714" data-name="Group 14714" transform="translate(-153.977)">
        <path data-name="Path 193"
            d="M606.669,19.388a1.131,1.131,0,0,1,1.13,1.13v9.534a1.131,1.131,0,0,1-1.13,1.13h-3.255a1.131,1.131,0,0,1-1.13-1.13V20.518a1.131,1.131,0,0,1,1.13-1.13Zm0-1.112h-3.255a2.242,2.242,0,0,0-2.242,2.242v9.534a2.242,2.242,0,0,0,2.242,2.242h3.255a2.242,2.242,0,0,0,2.242-2.242V20.518a2.242,2.242,0,0,0-2.242-2.242"
            transform="translate(-443.364 -16.921)" />
        <path data-name="Path 194"
            d="M636.84,29.489h-2.26a.3.3,0,0,0-.285.315v.079a.3.3,0,0,0,.285.315h2.26a.3.3,0,0,0,.285-.315V29.8a.3.3,0,0,0-.285-.315"
            transform="translate(-474.033 -27.303)" />
        <path data-name="Path 195"
            d="M639.364,180.334h1.752a.176.176,0,0,0,0-.352h-1.752a.176.176,0,1,0,0,.352"
            transform="translate(-478.563 -166.643)" />
        <path data-name="Path 196"
            d="M651.681,119.249a5.805,5.805,0,0,1-5.8-5.8V111.6h1.112v1.853a4.687,4.687,0,1,0,9.374,0v-9.906a3.2,3.2,0,0,1,6.395,0v8.675h-1.112v-8.675a2.086,2.086,0,0,0-4.171,0v9.906a5.805,5.805,0,0,1-5.8,5.8"
            transform="translate(-484.761 -92.91)" />
        <path data-name="Path 197"
            d="M853.5,248.823a.937.937,0,1,1,.937.937.937.937,0,0,1-.937-.937"
            transform="translate(-676.987 -229.514)" />
        <path data-name="Path 198"
            d="M827.408,218.7a3.1,3.1,0,1,0,3.1,3.1,3.1,3.1,0,0,0-3.1-3.1m0,5.111a2.01,2.01,0,1,1,2.01-2.01,2.01,2.01,0,0,1-2.01,2.01"
            transform="translate(-649.963 -202.491)" />
        <path data-name="Path 199"
            d="M571.309.912A.912.912,0,1,1,570.4,0a.912.912,0,0,1,.912.912"
            transform="translate(-414.026 0)" />
        <path data-name="Path 200"
            d="M714.5,2.026a.912.912,0,1,1-.912-.912.912.912,0,0,1,.912.912"
            transform="translate(-546.602 -1.031)" />
        <path data-name="Path 201"
            d="M562.651,5.547V6.659a1.131,1.131,0,0,1,1.123,1.13v8.86a6.588,6.588,0,0,1-13.177,0V7.789a1.131,1.131,0,0,1,1.116-1.129V5.547a2.242,2.242,0,0,0-2.228,2.241v8.86a7.7,7.7,0,0,0,7.7,7.7h0a7.7,7.7,0,0,0,7.7-7.7V7.789a2.242,2.242,0,0,0-2.234-2.242"
            transform="translate(-395.508 -5.136)" />
        <path data-name="Path 202"
            d="M622.2,57.092a.644.644,0,0,0-.561.329h-3.221l-.489-1.3a.316.316,0,0,0-.606.059l-.407,2.427-.942-5.055a.314.314,0,0,0-.31-.258h-.006a.315.315,0,0,0-.306.27l-.564,3.855h-.735v.631h1.007a.317.317,0,0,0,.312-.27l.329-2.246.921,4.942a.315.315,0,0,0,.621-.006l.508-3.032.153.407a.317.317,0,0,0,.3.2h3.439a.644.644,0,1,0,.561-.96"
            transform="translate(-455.292 -49.346)" />
    </g>
</svg>
  