<svg xmlns="http://www.w3.org/2000/svg" width="412.133" height="160.582"
    viewBox="0 0 412.133 160.582">
    <g id="logo" transform="translate(1.868)">
        <path id="Path_193" data-name="Path 193"
            d="M634.686,25.054a6.9,6.9,0,0,1,6.89,6.89V90.072a6.9,6.9,0,0,1-6.89,6.889H614.839a6.9,6.9,0,0,1-6.89-6.889V31.943a6.9,6.9,0,0,1,6.89-6.89Zm0-6.778H614.839a13.667,13.667,0,0,0-13.667,13.667V90.072a13.667,13.667,0,0,0,13.667,13.667h19.847a13.667,13.667,0,0,0,13.667-13.667V31.943a13.667,13.667,0,0,0-13.667-13.667"
            transform="translate(-329.535 -10.018)" fill="#fff" />
        <path id="Path_194" data-name="Path 194"
            d="M649.808,29.489H636.03a1.836,1.836,0,0,0-1.735,1.923v.48a1.836,1.836,0,0,0,1.735,1.923h13.778a1.836,1.836,0,0,0,1.735-1.923v-.48a1.836,1.836,0,0,0-1.735-1.923"
            transform="translate(-347.692 -16.164)" fill="#fff" />
        <path id="Path_195" data-name="Path 195"
            d="M640.262,182.129h10.679a1.073,1.073,0,1,0,0-2.147H640.262a1.073,1.073,0,1,0,0,2.147"
            transform="translate(-350.374 -98.658)" fill="#fff" />
        <path id="Path_196" data-name="Path 196"
            d="M681.234,215.588a35.392,35.392,0,0,1-35.352-35.352v-11.3h6.778v11.3a28.574,28.574,0,1,0,57.148,0v-60.4a19.493,19.493,0,0,1,38.986,0v52.887h-6.778V119.84a12.715,12.715,0,1,0-25.431,0v60.4a35.392,35.392,0,0,1-35.352,35.352"
            transform="translate(-354.043 -55.006)" fill="#fff" />
        <path id="Path_197" data-name="Path 197"
            d="M853.5,253.6a5.714,5.714,0,1,1,5.714,5.714A5.714,5.714,0,0,1,853.5,253.6"
            transform="translate(-467.847 -135.88)" fill="#fff" />
        <path id="Path_198" data-name="Path 198"
            d="M843.211,218.7a18.9,18.9,0,1,0,18.9,18.9,18.9,18.9,0,0,0-18.9-18.9m0,31.157A12.255,12.255,0,1,1,855.466,237.6a12.255,12.255,0,0,1-12.255,12.255"
            transform="translate(-451.848 -119.881)" fill="#fff" />
        <path id="Path_199" data-name="Path 199"
            d="M580.6,5.559A5.559,5.559,0,1,1,575.044,0,5.559,5.559,0,0,1,580.6,5.559"
            transform="translate(-312.166)" fill="#fff" />
        <path id="Path_200" data-name="Path 200"
            d="M723.791,6.673a5.559,5.559,0,1,1-5.559-5.559,5.559,5.559,0,0,1,5.559,5.559"
            transform="translate(-390.655 -0.61)" fill="#fff" />
        <path id="Path_201" data-name="Path 201"
            d="M629.753,5.547v6.779a6.9,6.9,0,0,1,6.844,6.887V73.228a40.168,40.168,0,0,1-80.335,0V19.213a6.9,6.9,0,0,1,6.8-6.885V5.548a13.666,13.666,0,0,0-13.581,13.665V73.228a46.945,46.945,0,0,0,46.945,46.945h0a46.945,46.945,0,0,0,46.945-46.945V19.213A13.666,13.666,0,0,0,629.753,5.547"
            transform="translate(-301.203 -3.04)" fill="#fff" />
        <path id="Path_202" data-name="Path 202"
            d="M663.724,76.438a3.924,3.924,0,0,0-3.422,2H640.667l-2.984-7.913a1.923,1.923,0,0,0-3.7.361l-2.481,14.8-5.741-30.822a1.917,1.917,0,0,0-1.891-1.571h-.038a1.917,1.917,0,0,0-1.866,1.645l-3.438,23.5h-4.479v3.847H620.2a1.934,1.934,0,0,0,1.9-1.645l2-13.693,5.613,30.131a1.923,1.923,0,0,0,3.788-.035l3.1-18.484.936,2.481a1.933,1.933,0,0,0,1.8,1.245H660.3a3.926,3.926,0,1,0,3.422-5.85"
            transform="translate(-336.597 -29.214)" fill="#fff" />
        <g id="Group_14710" data-name="Group 14710" transform="translate(0 -20)">
            <rect id="Rectangle_790" data-name="Rectangle 790" width="7.221" height="55.919"
                transform="translate(0 45.925)" fill="#fff" />
            <path id="Path_203" data-name="Path 203"
                d="M201.269,95.87a4.09,4.09,0,0,0-3.122,1.3,4.306,4.306,0,0,0-1.221,3.04,4.487,4.487,0,0,0,.326,1.683,4.358,4.358,0,0,0,.9,1.412,4.531,4.531,0,0,0,1.384.977,4.055,4.055,0,0,0,1.737.38,3.594,3.594,0,0,0,1.629-.38,4.755,4.755,0,0,0,1.33-.977,4.367,4.367,0,0,0,.9-1.412,4.486,4.486,0,0,0,.326-1.683,4.3,4.3,0,0,0-1.222-3.04,3.907,3.907,0,0,0-2.959-1.3"
                transform="translate(-107.946 -52.552)" fill="#fff" />
            <path id="Path_204" data-name="Path 204"
                d="M447.479,103.308a5,5,0,0,0,1.384.978,3.876,3.876,0,0,0,1.71.38,3.76,3.76,0,0,0,1.656-.38,5.015,5.015,0,0,0,1.385-.978,4.506,4.506,0,0,0,.95-1.411,4.2,4.2,0,0,0,.353-1.684,4.006,4.006,0,0,0-.353-1.655,4.591,4.591,0,0,0-2.335-2.335,4.008,4.008,0,0,0-1.656-.353,4.134,4.134,0,0,0-1.71.353,4.61,4.61,0,0,0-1.384.95,4.224,4.224,0,0,0-.923,1.384,4.293,4.293,0,0,0-.325,1.655,4.5,4.5,0,0,0,.325,1.684,4.137,4.137,0,0,0,.923,1.411"
                transform="translate(-244.603 -52.552)" fill="#fff" />
            <path id="Path_205" data-name="Path 205"
                d="M477.922,97.173a3.908,3.908,0,0,0-2.959-1.3,4.09,4.09,0,0,0-3.122,1.3,4.307,4.307,0,0,0-1.222,3.04,4.494,4.494,0,0,0,.326,1.683,4.366,4.366,0,0,0,.9,1.412,4.514,4.514,0,0,0,1.385.977,4.052,4.052,0,0,0,1.737.38,3.592,3.592,0,0,0,1.628-.38,4.745,4.745,0,0,0,1.33-.977,4.366,4.366,0,0,0,.9-1.412,4.491,4.491,0,0,0,.325-1.683,4.307,4.307,0,0,0-1.221-3.04"
                transform="translate(-257.973 -52.552)" fill="#fff" />
            <path id="Path_206" data-name="Path 206"
                d="M343.286,134.274v24.92q0,4.886-5.212,4.886H313.891v-17.7a13.558,13.558,0,0,0-1.113-5.755,10.868,10.868,0,0,0-2.932-3.882,11.844,11.844,0,0,0-4.207-2.2,17.546,17.546,0,0,0-5-.706,19.329,19.329,0,0,0-4.75.6,11.525,11.525,0,0,0-4.235,2.036,10.533,10.533,0,0,0-3.041,3.855,13.883,13.883,0,0,0-1.167,6.053v17.7h-23.8V134.274H249.532q-6.081,0-9.338,3.393t-3.257,9.148v11.835a14.86,14.86,0,0,0,.977,5.646,10.092,10.092,0,0,0,2.742,3.909,11.309,11.309,0,0,0,4.235,2.253,18.916,18.916,0,0,0,5.4.733h6.135v2.226a10.553,10.553,0,0,1-1.14,5.157,9.143,9.143,0,0,1-3.148,3.339,13.419,13.419,0,0,1-4.751,1.792c-.7.132-1.436.231-2.18.313v6.608a31.218,31.218,0,0,0,8.505-1.6,14.624,14.624,0,0,0,5.728-3.583,13.8,13.8,0,0,0,3.2-5.646,26.938,26.938,0,0,0,1-7.737v-.868H287.56a10.714,10.714,0,0,0,4.479,6.84,14.913,14.913,0,0,0,8.6,2.388,20.364,20.364,0,0,0,4.344-.461,12.07,12.07,0,0,0,3.855-1.547,10.412,10.412,0,0,0,2.986-2.85,10.973,10.973,0,0,0,1.737-4.37h23.966a17.246,17.246,0,0,0,4.968-.706,11.055,11.055,0,0,0,4.1-2.2,10.612,10.612,0,0,0,2.769-3.828,13.782,13.782,0,0,0,1.031-5.592V134.274ZM256.427,164.08h-5.592a23,23,0,0,1-2.932-.163,4.77,4.77,0,0,1-2.09-.733,3.355,3.355,0,0,1-1.249-1.629,8.324,8.324,0,0,1-.407-2.9V146.816a6.176,6.176,0,0,1,1.14-4.126q1.14-1.3,4.018-1.3h7.112Zm50.46,3.909a6.432,6.432,0,0,1-.516,2.8,3.982,3.982,0,0,1-1.385,1.629,5.507,5.507,0,0,1-2.009.788,12.55,12.55,0,0,1-2.335.217,12.107,12.107,0,0,1-2.307-.217,5.5,5.5,0,0,1-1.982-.788,3.97,3.97,0,0,1-1.385-1.629,6.419,6.419,0,0,1-.516-2.8V146.273a6.761,6.761,0,0,1,.461-2.688,3.866,3.866,0,0,1,1.3-1.656,5.3,5.3,0,0,1,1.982-.842,11.657,11.657,0,0,1,2.443-.244,11.949,11.949,0,0,1,2.5.244,5.308,5.308,0,0,1,1.981.842,3.879,3.879,0,0,1,1.3,1.656,6.778,6.778,0,0,1,.461,2.688Z"
                transform="translate(-129.878 -73.365)" fill="#fff" />
            <path id="Path_207" data-name="Path 207"
                d="M110.948,134.8V159.72q0,4.887-5.212,4.886H65.4V134.8H51.285q-6.081,0-9.338,3.393t-3.257,9.148v11.836a14.861,14.861,0,0,0,.977,5.646,10.1,10.1,0,0,0,2.742,3.909,11.309,11.309,0,0,0,4.235,2.253,18.918,18.918,0,0,0,5.4.733H58.18v2.226a10.552,10.552,0,0,1-1.14,5.157,9.143,9.143,0,0,1-3.148,3.339,13.419,13.419,0,0,1-4.751,1.792c-.711.134-1.449.234-2.2.315v6.6l0,0a31.246,31.246,0,0,0,8.524-1.6,14.623,14.623,0,0,0,5.728-3.583,13.809,13.809,0,0,0,3.2-5.646,26.939,26.939,0,0,0,1-7.737v-.868h39.793a17.252,17.252,0,0,0,4.968-.706,11.053,11.053,0,0,0,4.1-2.2,10.605,10.605,0,0,0,2.769-3.828,13.781,13.781,0,0,0,1.032-5.593V134.8ZM58.18,164.607H52.588a23.014,23.014,0,0,1-2.932-.163,4.772,4.772,0,0,1-2.09-.733,3.356,3.356,0,0,1-1.249-1.629,8.325,8.325,0,0,1-.407-2.9V147.342a6.176,6.176,0,0,1,1.14-4.126q1.14-1.3,4.018-1.3H58.18Z"
                transform="translate(-21.208 -73.892)" fill="#fff" />
            <text id="حجوزاتكم_الطبية_صارت_أسهل" data-name="حجوزاتكم الطبية صارت أسهل"
                transform="translate(111.132 145.291)" fill="#fff" font-size="18.5"
                font-family="BahijTheSansArabic-Bold, Bahij TheSansArabic" font-weight="700">
                <tspan x="-112.147" y="0">حجوزاتكم الطبية صارت أسهل</tspan>
            </text>
        </g>
    </g>
</svg>
  