<svg xmlns="http://www.w3.org/2000/svg" width="184.275" height="233.15" viewBox="0 0 184.275 233.15">
    <g id="Group_14715" data-name="Group 14715" transform="translate(-1013 -285.262)">
        <g id="Group_14714" data-name="Group 14714" transform="translate(890.761 285.262)">
            <path id="Path_193" data-name="Path 193"
                d="M626.247,23.347A5.161,5.161,0,0,1,631.4,28.5V71.993a5.161,5.161,0,0,1-5.155,5.155H611.4a5.161,5.161,0,0,1-5.155-5.155V28.5a5.161,5.161,0,0,1,5.155-5.155Zm0-5.071H611.4A10.226,10.226,0,0,0,601.172,28.5V71.993A10.226,10.226,0,0,0,611.4,82.219h14.849a10.226,10.226,0,0,0,10.226-10.226V28.5a10.226,10.226,0,0,0-10.226-10.226"
                transform="translate(-429.721 -12.097)" fill="#fff" />
            <path id="Path_194" data-name="Path 194"
                d="M645.9,29.489H635.593a1.374,1.374,0,0,0-1.3,1.438v.359a1.374,1.374,0,0,0,1.3,1.438H645.9a1.374,1.374,0,0,0,1.3-1.438v-.359a1.374,1.374,0,0,0-1.3-1.438"
                transform="translate(-451.647 -19.519)" fill="#fff" />
            <path id="Path_195" data-name="Path 195"
                d="M639.991,181.588h7.99a.8.8,0,1,0,0-1.606h-7.99a.8.8,0,1,0,0,1.606"
                transform="translate(-454.886 -119.136)" fill="#fff" />
            <path id="Path_196" data-name="Path 196"
                d="M672.332,186.569a26.48,26.48,0,0,1-26.45-26.45v-8.454h5.071v8.454a21.379,21.379,0,1,0,42.758,0V114.932a14.585,14.585,0,0,1,29.169,0V154.5h-5.071V114.932a9.514,9.514,0,1,0-19.027,0v45.187a26.48,26.48,0,0,1-26.45,26.45"
                transform="translate(-459.317 -66.423)" fill="#fff" />
            <path id="Path_197" data-name="Path 197"
                d="M853.5,252.162a4.275,4.275,0,1,1,4.275,4.276,4.275,4.275,0,0,1-4.275-4.276"
                transform="translate(-596.742 -164.084)" fill="#fff" />
            <path id="Path_198" data-name="Path 198"
                d="M838.451,218.7a14.143,14.143,0,1,0,14.143,14.143A14.143,14.143,0,0,0,838.451,218.7m0,23.312a9.169,9.169,0,1,1,9.169-9.169,9.169,9.169,0,0,1-9.169,9.169"
                transform="translate(-577.422 -144.764)" fill="#fff" />
            <path id="Path_199" data-name="Path 199"
                d="M577.8,4.159A4.159,4.159,0,1,1,573.644,0,4.159,4.159,0,0,1,577.8,4.159"
                transform="translate(-408.747)" fill="#fff" />
            <path id="Path_200" data-name="Path 200"
                d="M720.991,5.273a4.159,4.159,0,1,1-4.159-4.159,4.159,4.159,0,0,1,4.159,4.159"
                transform="translate(-503.528 -0.737)" fill="#fff" />
            <path id="Path_201" data-name="Path 201"
                d="M609.541,5.547v5.072a5.159,5.159,0,0,1,5.121,5.153V56.186a30.053,30.053,0,0,1-60.106,0V15.772a5.159,5.159,0,0,1,5.09-5.151V5.548a10.225,10.225,0,0,0-10.161,10.224V56.186A35.124,35.124,0,0,0,584.609,91.31h0a35.124,35.124,0,0,0,35.124-35.124V15.772A10.225,10.225,0,0,0,609.541,5.547"
                transform="translate(-395.508 -3.671)" fill="#fff" />
            <path id="Path_202" data-name="Path 202"
                d="M651.217,70.611a2.936,2.936,0,0,0-2.56,1.5H633.966l-2.232-5.92a1.439,1.439,0,0,0-2.766.27l-1.857,11.073-4.295-23.061A1.435,1.435,0,0,0,621.4,53.3h-.028a1.434,1.434,0,0,0-1.4,1.231L617.405,72.11h-3.351v2.878h4.6a1.447,1.447,0,0,0,1.424-1.231l1.5-10.245,4.2,22.544a1.439,1.439,0,0,0,2.834-.026l2.319-13.83.7,1.856a1.446,1.446,0,0,0,1.347.932h15.686a2.938,2.938,0,1,0,2.56-4.377"
                transform="translate(-438.248 -35.278)" fill="#fff" />
        </g>
        <g id="Group_14710" data-name="Group 14710" transform="translate(1015.781 425.407)">
            <rect id="Rectangle_790" data-name="Rectangle 790" width="5.902" height="45.708"
                transform="translate(0.709 2.131)" fill="#fff" />
            <path id="Path_203" data-name="Path 203"
                d="M200.476,95.87a3.343,3.343,0,0,0-2.552,1.065,3.52,3.52,0,0,0-1,2.485,3.668,3.668,0,0,0,.266,1.376,3.562,3.562,0,0,0,.732,1.154,3.7,3.7,0,0,0,1.132.8,3.314,3.314,0,0,0,1.42.311,2.937,2.937,0,0,0,1.331-.311,3.886,3.886,0,0,0,1.087-.8,3.57,3.57,0,0,0,.733-1.154,3.667,3.667,0,0,0,.266-1.376,3.518,3.518,0,0,0-1-2.485,3.194,3.194,0,0,0-2.418-1.065"
                transform="translate(-123.485 -95.87)" fill="#fff" />
            <path id="Path_204" data-name="Path 204"
                d="M447.251,101.95a4.088,4.088,0,0,0,1.132.8,3.169,3.169,0,0,0,1.4.311,3.073,3.073,0,0,0,1.353-.311,4.1,4.1,0,0,0,1.132-.8,3.684,3.684,0,0,0,.777-1.153,3.431,3.431,0,0,0,.288-1.376,3.275,3.275,0,0,0-.288-1.353,3.753,3.753,0,0,0-1.908-1.908,3.276,3.276,0,0,0-1.353-.288,3.379,3.379,0,0,0-1.4.288,3.768,3.768,0,0,0-1.132.777,3.454,3.454,0,0,0-.755,1.132,3.509,3.509,0,0,0-.266,1.353,3.678,3.678,0,0,0,.266,1.376,3.383,3.383,0,0,0,.755,1.153"
                transform="translate(-280.712 -95.87)" fill="#fff" />
            <path id="Path_205" data-name="Path 205"
                d="M476.589,96.935a3.2,3.2,0,0,0-2.418-1.065,3.343,3.343,0,0,0-2.552,1.065,3.521,3.521,0,0,0-1,2.485,3.674,3.674,0,0,0,.266,1.375,3.57,3.57,0,0,0,.732,1.154,3.691,3.691,0,0,0,1.132.8,3.312,3.312,0,0,0,1.42.311,2.936,2.936,0,0,0,1.331-.311,3.878,3.878,0,0,0,1.087-.8,3.569,3.569,0,0,0,.732-1.154,3.671,3.671,0,0,0,.266-1.375,3.521,3.521,0,0,0-1-2.485"
                transform="translate(-296.094 -95.87)" fill="#fff" />
            <path id="Path_206" data-name="Path 206"
                d="M323.866,134.195v20.369q0,3.994-4.26,3.994H299.839V144.091a11.082,11.082,0,0,0-.91-4.7,8.884,8.884,0,0,0-2.4-3.173,9.681,9.681,0,0,0-3.439-1.8,14.342,14.342,0,0,0-4.083-.577,15.8,15.8,0,0,0-3.883.488,9.421,9.421,0,0,0-3.461,1.664,8.61,8.61,0,0,0-2.485,3.151,11.347,11.347,0,0,0-.954,4.948v14.467H258.77V134.195H247.232q-4.971,0-7.633,2.773a10.347,10.347,0,0,0-2.662,7.478v9.674a12.147,12.147,0,0,0,.8,4.615,8.249,8.249,0,0,0,2.241,3.2,9.244,9.244,0,0,0,3.461,1.842,15.463,15.463,0,0,0,4.416.6h5.014v1.819a8.626,8.626,0,0,1-.932,4.216,7.473,7.473,0,0,1-2.574,2.729,10.969,10.969,0,0,1-3.883,1.464c-.576.108-1.173.189-1.782.256v5.4a25.517,25.517,0,0,0,6.952-1.308,11.953,11.953,0,0,0,4.682-2.929,11.285,11.285,0,0,0,2.619-4.615,22.019,22.019,0,0,0,.821-6.324v-.71h19.545a8.758,8.758,0,0,0,3.661,5.591,12.19,12.19,0,0,0,7.034,1.952,16.645,16.645,0,0,0,3.55-.377,9.865,9.865,0,0,0,3.151-1.265,8.51,8.51,0,0,0,2.441-2.33,8.969,8.969,0,0,0,1.42-3.572h19.59a14.1,14.1,0,0,0,4.06-.577,9.036,9.036,0,0,0,3.351-1.8,8.675,8.675,0,0,0,2.263-3.129,11.266,11.266,0,0,0,.843-4.571v-20.1Zm-71,24.363H248.3a18.8,18.8,0,0,1-2.4-.133,3.9,3.9,0,0,1-1.709-.6,2.743,2.743,0,0,1-1.021-1.331,6.8,6.8,0,0,1-.333-2.374v-9.674a5.049,5.049,0,0,1,.932-3.373,4.2,4.2,0,0,1,3.284-1.065h5.813Zm41.246,3.2a5.257,5.257,0,0,1-.421,2.285,3.254,3.254,0,0,1-1.132,1.331,4.5,4.5,0,0,1-1.642.644,10.259,10.259,0,0,1-1.908.177,9.9,9.9,0,0,1-1.886-.177,4.492,4.492,0,0,1-1.62-.644,3.245,3.245,0,0,1-1.132-1.331,5.248,5.248,0,0,1-.421-2.285V144a5.528,5.528,0,0,1,.377-2.2,3.16,3.16,0,0,1,1.065-1.353,4.334,4.334,0,0,1,1.62-.688,9.528,9.528,0,0,1,2-.2,9.766,9.766,0,0,1,2.042.2,4.339,4.339,0,0,1,1.62.688,3.171,3.171,0,0,1,1.065,1.353,5.541,5.541,0,0,1,.377,2.2Z"
                transform="translate(-148.719 -119.816)" fill="#fff" />
            <path id="Path_207" data-name="Path 207"
                d="M97.754,134.8V155.17q0,3.994-4.26,3.994H60.523V134.8H48.985q-4.971,0-7.633,2.773a10.347,10.347,0,0,0-2.663,7.478v9.674a12.147,12.147,0,0,0,.8,4.615,8.252,8.252,0,0,0,2.241,3.2,9.244,9.244,0,0,0,3.461,1.842,15.465,15.465,0,0,0,4.416.6h5.014V166.8a8.626,8.626,0,0,1-.932,4.216,7.474,7.474,0,0,1-2.574,2.729,10.969,10.969,0,0,1-3.883,1.464c-.581.109-1.184.191-1.8.258v5.4l0,0a25.54,25.54,0,0,0,6.967-1.309,11.953,11.953,0,0,0,4.682-2.929,11.287,11.287,0,0,0,2.619-4.615,22.02,22.02,0,0,0,.821-6.324v-.71H93.05a14.1,14.1,0,0,0,4.06-.577,9.035,9.035,0,0,0,3.35-1.8,8.669,8.669,0,0,0,2.263-3.129,11.265,11.265,0,0,0,.843-4.571V134.8ZM54.621,159.164H50.05a18.814,18.814,0,0,1-2.4-.133,3.9,3.9,0,0,1-1.709-.6,2.743,2.743,0,0,1-1.021-1.332,6.8,6.8,0,0,1-.333-2.374v-9.674a5.048,5.048,0,0,1,.932-3.372,4.2,4.2,0,0,1,3.284-1.065h5.813Z"
                transform="translate(-23.691 -120.422)" fill="#fff" />
            <text id="حجوزاتكم_الطبية_صارت_أسهل" data-name="حجوزاتكم الطبية صارت أسهل"
                transform="translate(88.219 85.004)" fill="#fff" font-size="15"
                font-family="BahijTheSansArabic-Bold, Bahij TheSansArabic" font-weight="700">
                <tspan x="-90.93" y="0">حجوزاتكم الطبية صارت أسهل</tspan>
            </text>
        </g>
    </g>
</svg>
  