<svg xmlns="http://www.w3.org/2000/svg" width="228.759" height="329.032" viewBox="0 0 228.759 329.032">
  <g id="Group_14615" data-name="Group 14615" transform="translate(-448.487 -227.14)">
    <path id="Path_154" data-name="Path 154" d="M833.95,44.37A26.553,26.553,0,0,1,860.473,70.9V294.69a26.553,26.553,0,0,1-26.524,26.524H757.541a26.555,26.555,0,0,1-26.526-26.524V70.9A26.556,26.556,0,0,1,757.541,44.37Zm0-26.094H757.541a52.618,52.618,0,0,0-52.62,52.62V294.69a52.618,52.618,0,0,0,52.62,52.618H833.95a52.617,52.617,0,0,0,52.617-52.618V70.9a52.618,52.618,0,0,0-52.617-52.62" transform="translate(-256.434 208.864)" fill="#3fb2a8"/>
    <path id="Path_155" data-name="Path 155" d="M797.77,29.489H744.725c-3.69,0-6.681,3.314-6.681,7.4V38.74c0,4.088,2.991,7.4,6.681,7.4H797.77c3.689,0,6.68-3.314,6.68-7.4V36.891c0-4.088-2.991-7.4-6.68-7.4" transform="translate(-231.934 217.155)" fill="#3fb2a8"/>
    <path id="Path_156" data-name="Path 156" d="M747.071,188.247h41.113a4.132,4.132,0,1,0,0-8.265H747.071a4.132,4.132,0,1,0,0,8.265" transform="translate(-228.318 328.461)" fill="#3fb2a8"/>
    <path id="Path_157" data-name="Path 157" d="M909.032,142.393a15.1,15.1,0,0,0-13.172,7.713H820.265l-11.488-30.464a7.405,7.405,0,0,0-14.233,1.388l-9.553,56.977L762.89,59.345a7.379,7.379,0,0,0-7.277-6.049h-.147a7.381,7.381,0,0,0-7.183,6.332l-13.236,90.479H717.8v14.811h23.646a7.447,7.447,0,0,0,7.328-6.334l7.712-52.719L778.1,221.871a7.4,7.4,0,0,0,14.583-.134l11.931-71.164,3.6,9.55a7.441,7.441,0,0,0,6.931,4.794H895.86a15.116,15.116,0,1,0,13.172-22.524" transform="translate(-246.906 234.765)" fill="#3fb2a8"/>
  </g>
</svg>
