<svg xmlns="http://www.w3.org/2000/svg" xmlns:xlink="http://www.w3.org/1999/xlink" width="70.908" height="70.121" viewBox="0 0 70.908 70.121">
  <defs>
    <clipPath id="clip-path">
      <rect id="Rectangle_784" data-name="Rectangle 784" width="70.908" height="70.121" fill="#fff"/>
    </clipPath>
  </defs>
  <g id="Group_14613" data-name="Group 14613" clip-path="url(#clip-path)">
    <path id="Path_139" data-name="Path 139" d="M170.551,20.116a1.873,1.873,0,0,1,1.871,1.871V37.768a1.873,1.873,0,0,1-1.871,1.87h-5.388a1.873,1.873,0,0,1-1.871-1.87V21.987a1.873,1.873,0,0,1,1.871-1.871Zm0-1.84h-5.388a3.711,3.711,0,0,0-3.711,3.711V37.768a3.711,3.711,0,0,0,3.711,3.711h5.388a3.711,3.711,0,0,0,3.711-3.711V21.987a3.711,3.711,0,0,0-3.711-3.711" transform="translate(-141.646 -16.034)" fill="#fff"/>
    <path id="Path_140" data-name="Path 140" d="M198.787,29.489h-3.741a.5.5,0,0,0-.471.522v.13a.5.5,0,0,0,.471.522h3.741a.5.5,0,0,0,.471-.522v-.13a.5.5,0,0,0-.471-.522" transform="translate(-170.706 -25.871)" fill="#fff"/>
    <path id="Path_141" data-name="Path 141" d="M199.759,180.565h2.9a.291.291,0,1,0,0-.583h-2.9a.291.291,0,1,0,0,.583" transform="translate(-174.998 -157.903)" fill="#fff"/>
    <path id="Path_142" data-name="Path 142" d="M215.76,131.634a9.609,9.609,0,0,1-9.6-9.6v-3.068H208v3.068a7.758,7.758,0,0,0,15.516,0v-16.4a5.292,5.292,0,1,1,10.585,0V120h-1.84V105.639a3.452,3.452,0,0,0-6.9,0v16.4a9.609,9.609,0,0,1-9.6,9.6" transform="translate(-180.871 -88.037)" fill="#fff"/>
    <path id="Path_143" data-name="Path 143" d="M413.775,249.437a1.552,1.552,0,1,1,1.551,1.551,1.551,1.551,0,0,1-1.551-1.551" transform="translate(-363.015 -217.477)" fill="#fff"/>
    <path id="Path_144" data-name="Path 144" d="M389.72,218.7a5.132,5.132,0,1,0,5.132,5.132,5.132,5.132,0,0,0-5.132-5.132m0,8.459a3.327,3.327,0,1,1,3.327-3.327,3.327,3.327,0,0,1-3.327,3.327" transform="translate(-337.409 -191.871)" fill="#fff"/>
    <path id="Path_145" data-name="Path 145" d="M132.784,1.509A1.509,1.509,0,1,1,131.275,0a1.509,1.509,0,0,1,1.509,1.509" transform="translate(-113.847 0)" fill="#fff"/>
    <path id="Path_146" data-name="Path 146" d="M275.971,2.623a1.509,1.509,0,1,1-1.509-1.509,1.509,1.509,0,0,1,1.509,1.509" transform="translate(-239.469 -0.977)" fill="#fff"/>
    <path id="Path_147" data-name="Path 147" d="M131.557,5.547v1.84a1.872,1.872,0,0,1,1.858,1.87V23.922a10.905,10.905,0,0,1-21.811,0V9.257a1.872,1.872,0,0,1,1.847-1.869V5.547a3.71,3.71,0,0,0-3.687,3.71V23.922A12.745,12.745,0,0,0,122.51,36.668h0a12.745,12.745,0,0,0,12.745-12.745V9.257a3.71,3.71,0,0,0-3.7-3.71" transform="translate(-96.3 -4.867)" fill="#fff"/>
    <path id="Path_148" data-name="Path 148" d="M187.82,59.579a1.065,1.065,0,0,0-.929.544H181.56l-.81-2.148a.522.522,0,0,0-1,.1l-.674,4.018-1.559-8.368A.52.52,0,0,0,177,53.3h-.01a.52.52,0,0,0-.507.447l-.933,6.38h-1.216v1.044H176a.525.525,0,0,0,.517-.447L177.063,57l1.524,8.181a.522.522,0,0,0,1.028-.009l.841-5.018.254.673a.525.525,0,0,0,.489.338h5.692a1.066,1.066,0,1,0,.929-1.588" transform="translate(-152.949 -46.758)" fill="#fff"/>
    <rect id="Rectangle_783" data-name="Rectangle 783" width="2.315" height="17.928" transform="translate(0 47.25)" fill="#fff"/>
    <path id="Path_149" data-name="Path 149" d="M233.937,378.355a1.311,1.311,0,0,0-1,.418,1.381,1.381,0,0,0-.392.975,1.442,1.442,0,0,0,.1.54,1.4,1.4,0,0,0,.287.452,1.453,1.453,0,0,0,.444.313,1.3,1.3,0,0,0,.557.122,1.153,1.153,0,0,0,.522-.122,1.526,1.526,0,0,0,.426-.313,1.4,1.4,0,0,0,.287-.452,1.439,1.439,0,0,0,.1-.54,1.381,1.381,0,0,0-.392-.975,1.253,1.253,0,0,0-.949-.418" transform="translate(-204.018 -331.941)" fill="#fff"/>
    <path id="Path_150" data-name="Path 150" d="M527.342,380.741a1.6,1.6,0,0,0,.444.313,1.242,1.242,0,0,0,.548.122,1.206,1.206,0,0,0,.531-.122,1.612,1.612,0,0,0,.444-.313,1.446,1.446,0,0,0,.3-.453,1.346,1.346,0,0,0,.113-.54,1.287,1.287,0,0,0-.113-.531,1.472,1.472,0,0,0-.748-.748,1.286,1.286,0,0,0-.531-.113,1.325,1.325,0,0,0-.548.113,1.477,1.477,0,0,0-.444.3,1.355,1.355,0,0,0-.3.444,1.378,1.378,0,0,0-.1.531,1.442,1.442,0,0,0,.1.54,1.329,1.329,0,0,0,.3.453" transform="translate(-462.3 -331.941)" fill="#fff"/>
    <path id="Path_151" data-name="Path 151" d="M558.086,378.773a1.253,1.253,0,0,0-.949-.418,1.311,1.311,0,0,0-1,.418,1.38,1.38,0,0,0-.392.975,1.439,1.439,0,0,0,.1.54,1.4,1.4,0,0,0,.287.453,1.451,1.451,0,0,0,.444.313,1.3,1.3,0,0,0,.557.122,1.152,1.152,0,0,0,.522-.122,1.523,1.523,0,0,0,.426-.313,1.4,1.4,0,0,0,.287-.453,1.439,1.439,0,0,0,.1-.54,1.381,1.381,0,0,0-.392-.975" transform="translate(-487.569 -331.941)" fill="#fff"/>
    <path id="Path_152" data-name="Path 152" d="M313.889,423.33v7.989q0,1.567-1.671,1.566h-7.753v-5.674a4.346,4.346,0,0,0-.357-1.845,3.486,3.486,0,0,0-.94-1.245,3.8,3.8,0,0,0-1.349-.7,5.63,5.63,0,0,0-1.6-.226,6.192,6.192,0,0,0-1.523.191,3.692,3.692,0,0,0-1.358.653,3.375,3.375,0,0,0-.975,1.236,4.45,4.45,0,0,0-.374,1.941v5.674h-7.631V423.33h-4.526a3.957,3.957,0,0,0-2.994,1.088,4.059,4.059,0,0,0-1.044,2.933v3.794a4.765,4.765,0,0,0,.313,1.81,3.235,3.235,0,0,0,.879,1.253,3.624,3.624,0,0,0,1.358.722,6.066,6.066,0,0,0,1.732.235h1.967v.714a3.385,3.385,0,0,1-.365,1.654,2.932,2.932,0,0,1-1.009,1.071,4.3,4.3,0,0,1-1.523.574c-.226.042-.46.074-.7.1V441.4a10.007,10.007,0,0,0,2.727-.513,4.687,4.687,0,0,0,1.836-1.149,4.427,4.427,0,0,0,1.027-1.81,8.635,8.635,0,0,0,.322-2.48v-.278h7.666a3.436,3.436,0,0,0,1.436,2.193,4.781,4.781,0,0,0,2.759.766,6.528,6.528,0,0,0,1.392-.148,3.87,3.87,0,0,0,1.236-.5,3.339,3.339,0,0,0,.957-.914,3.518,3.518,0,0,0,.557-1.4h7.684a5.528,5.528,0,0,0,1.593-.226,3.54,3.54,0,0,0,1.314-.7,3.4,3.4,0,0,0,.888-1.227,4.42,4.42,0,0,0,.331-1.793V423.33Zm-27.847,9.556h-1.793a7.369,7.369,0,0,1-.94-.052,1.53,1.53,0,0,1-.67-.235,1.076,1.076,0,0,1-.4-.522,2.672,2.672,0,0,1-.131-.931v-3.794a1.98,1.98,0,0,1,.366-1.323,1.649,1.649,0,0,1,1.288-.418h2.28Zm16.178,1.253a2.061,2.061,0,0,1-.165.9,1.276,1.276,0,0,1-.444.522,1.763,1.763,0,0,1-.644.252,4.017,4.017,0,0,1-.748.07,3.878,3.878,0,0,1-.74-.07,1.758,1.758,0,0,1-.635-.252,1.272,1.272,0,0,1-.444-.522,2.058,2.058,0,0,1-.165-.9v-6.962a2.165,2.165,0,0,1,.148-.862,1.239,1.239,0,0,1,.418-.531,1.7,1.7,0,0,1,.635-.27,3.741,3.741,0,0,1,.783-.078,3.832,3.832,0,0,1,.8.078,1.7,1.7,0,0,1,.635.27,1.244,1.244,0,0,1,.418.531,2.17,2.17,0,0,1,.148.862Z" transform="translate(-245.47 -371.276)" fill="#fff"/>
    <path id="Path_153" data-name="Path 153" d="M68.853,424.326v7.989q0,1.567-1.671,1.567H54.251v-9.556H49.725a3.957,3.957,0,0,0-2.994,1.088,4.058,4.058,0,0,0-1.044,2.933v3.795a4.767,4.767,0,0,0,.313,1.81,3.237,3.237,0,0,0,.879,1.253,3.624,3.624,0,0,0,1.358.722,6.068,6.068,0,0,0,1.732.235h1.967v.714a3.384,3.384,0,0,1-.366,1.654,2.93,2.93,0,0,1-1.009,1.07,4.3,4.3,0,0,1-1.523.574c-.228.043-.464.075-.705.1v2.117h0a10.019,10.019,0,0,0,2.733-.514,4.688,4.688,0,0,0,1.836-1.149,4.425,4.425,0,0,0,1.027-1.81,8.636,8.636,0,0,0,.322-2.48v-.278H67.008a5.528,5.528,0,0,0,1.593-.226,3.54,3.54,0,0,0,1.314-.7A3.4,3.4,0,0,0,70.8,434a4.418,4.418,0,0,0,.331-1.793v-7.885Zm-16.918,9.556H50.143a7.385,7.385,0,0,1-.94-.052,1.531,1.531,0,0,1-.67-.235,1.075,1.075,0,0,1-.4-.522,2.668,2.668,0,0,1-.131-.931v-3.795a1.98,1.98,0,0,1,.365-1.323,1.649,1.649,0,0,1,1.288-.418h2.28Z" transform="translate(-40.082 -372.272)" fill="#fff"/>
  </g>
</svg>
