<svg xmlns="http://www.w3.org/2000/svg" xmlns:xlink="http://www.w3.org/1999/xlink" width="127.4"
    height="49.866" viewBox="0 0 127.4 49.866">
    <defs>
        <clipPath id="clip-path">
            <rect id="Rectangle_791" data-name="Rectangle 791" width="127.4" height="49.866"
                fill="#37A59B" />
        </clipPath>
    </defs>
    <g id="Group_14620" data-name="Group 14620" clip-path="url(#clip-path)">
        <path id="Path_193" data-name="Path 193"
            d="M611.579,20.381a2.142,2.142,0,0,1,2.139,2.139V40.571a2.142,2.142,0,0,1-2.139,2.139h-6.163a2.142,2.142,0,0,1-2.139-2.139V22.52a2.142,2.142,0,0,1,2.139-2.139Zm0-2.1h-6.163a4.244,4.244,0,0,0-4.244,4.244V40.571a4.244,4.244,0,0,0,4.244,4.244h6.163a4.244,4.244,0,0,0,4.244-4.244V22.52a4.244,4.244,0,0,0-4.244-4.244"
            transform="translate(-516.821 -15.712)" fill="#37A59B" />
        <path id="Path_194" data-name="Path 194"
            d="M639.112,29.489h-4.279a.57.57,0,0,0-.539.6v.149a.57.57,0,0,0,.539.6h4.279a.57.57,0,0,0,.539-.6v-.149a.57.57,0,0,0-.539-.6"
            transform="translate(-545.296 -25.351)" fill="#37A59B" />
        <path id="Path_195" data-name="Path 195"
            d="M639.521,180.649h3.316a.333.333,0,1,0,0-.667h-3.316a.333.333,0,1,0,0,.667"
            transform="translate(-549.502 -154.728)" fill="#37A59B" />
        <path id="Path_196" data-name="Path 196"
            d="M656.86,136.133a10.99,10.99,0,0,1-10.978-10.978v-3.509h2.1v3.509a8.873,8.873,0,1,0,17.746,0V106.4a6.053,6.053,0,1,1,12.106,0v16.423h-2.1V106.4a3.949,3.949,0,1,0-7.9,0v18.755a10.99,10.99,0,0,1-10.978,10.978"
            transform="translate(-555.257 -86.267)" fill="#37A59B" />
        <path id="Path_197" data-name="Path 197"
            d="M853.5,249.661a1.775,1.775,0,1,1,1.774,1.775,1.774,1.774,0,0,1-1.774-1.775"
            transform="translate(-733.74 -213.105)" fill="#37A59B" />
        <path id="Path_198" data-name="Path 198"
            d="M830.178,218.7a5.87,5.87,0,1,0,5.87,5.87,5.87,5.87,0,0,0-5.87-5.87m0,9.675a3.806,3.806,0,1,1,3.806-3.806,3.805,3.805,0,0,1-3.806,3.806"
            transform="translate(-708.648 -188.014)" fill="#37A59B" />
        <path id="Path_199" data-name="Path 199"
            d="M572.937,1.726A1.726,1.726,0,1,1,571.211,0a1.726,1.726,0,0,1,1.726,1.726"
            transform="translate(-489.58 0)" fill="#37A59B" />
        <path id="Path_200" data-name="Path 200"
            d="M716.125,2.84A1.726,1.726,0,1,1,714.4,1.114a1.726,1.726,0,0,1,1.726,1.726"
            transform="translate(-612.677 -0.958)" fill="#37A59B" />
        <path id="Path_201" data-name="Path 201"
            d="M574.411,5.547V7.652a2.141,2.141,0,0,1,2.125,2.139V26.564a12.473,12.473,0,0,1-24.946,0V9.791A2.141,2.141,0,0,1,553.7,7.653V5.547a4.244,4.244,0,0,0-4.217,4.243V26.564a14.578,14.578,0,0,0,14.578,14.578h0a14.578,14.578,0,0,0,14.578-14.578V9.791a4.244,4.244,0,0,0-4.23-4.244"
            transform="translate(-472.386 -4.769)" fill="#37A59B" />
        <path id="Path_202" data-name="Path 202"
            d="M629.478,60.482a1.218,1.218,0,0,0-1.063.622h-6.1l-.927-2.457a.6.6,0,0,0-1.148.112l-.771,4.6-1.783-9.571a.6.6,0,0,0-.587-.488h-.012a.6.6,0,0,0-.579.511l-1.068,7.3h-1.391V62.3h1.907a.6.6,0,0,0,.591-.511l.622-4.252,1.743,9.357a.6.6,0,0,0,1.176-.011l.962-5.74.291.77a.6.6,0,0,0,.559.387h6.51a1.219,1.219,0,1,0,1.063-1.817"
            transform="translate(-527.895 -45.818)" fill="#37A59B" />
        <rect id="Rectangle_790" data-name="Rectangle 790" width="2.242" height="17.365"
            transform="translate(0 14.261)" fill="#37A59B" />
        <path id="Path_203" data-name="Path 203"
            d="M198.275,95.87a1.27,1.27,0,0,0-.969.4,1.337,1.337,0,0,0-.379.944,1.393,1.393,0,0,0,.1.523,1.353,1.353,0,0,0,.278.438,1.407,1.407,0,0,0,.43.3,1.259,1.259,0,0,0,.539.118,1.116,1.116,0,0,0,.506-.118,1.477,1.477,0,0,0,.413-.3,1.356,1.356,0,0,0,.278-.438,1.393,1.393,0,0,0,.1-.523,1.337,1.337,0,0,0-.379-.944,1.213,1.213,0,0,0-.919-.4"
            transform="translate(-169.295 -82.418)" fill="#37A59B" />
        <path id="Path_204" data-name="Path 204"
            d="M446.618,98.181a1.553,1.553,0,0,0,.43.3,1.2,1.2,0,0,0,.531.118,1.168,1.168,0,0,0,.514-.118,1.557,1.557,0,0,0,.43-.3,1.4,1.4,0,0,0,.3-.438,1.3,1.3,0,0,0,.11-.523,1.244,1.244,0,0,0-.11-.514,1.426,1.426,0,0,0-.725-.725,1.245,1.245,0,0,0-.514-.11,1.284,1.284,0,0,0-.531.11,1.431,1.431,0,0,0-.43.3,1.312,1.312,0,0,0-.287.43,1.333,1.333,0,0,0-.1.514,1.4,1.4,0,0,0,.1.523,1.285,1.285,0,0,0,.287.438"
            transform="translate(-383.619 -82.419)" fill="#37A59B" />
        <path id="Path_205" data-name="Path 205"
            d="M472.888,96.275a1.214,1.214,0,0,0-.919-.4,1.27,1.27,0,0,0-.969.4,1.337,1.337,0,0,0-.379.944,1.4,1.4,0,0,0,.1.523,1.356,1.356,0,0,0,.278.438,1.4,1.4,0,0,0,.43.3,1.259,1.259,0,0,0,.539.118,1.115,1.115,0,0,0,.506-.118,1.473,1.473,0,0,0,.413-.3,1.356,1.356,0,0,0,.278-.438,1.4,1.4,0,0,0,.1-.523,1.337,1.337,0,0,0-.379-.944"
            transform="translate(-404.587 -82.418)" fill="#37A59B" />
        <path id="Path_206" data-name="Path 206"
            d="M269.962,133.975v7.738q0,1.517-1.618,1.517h-7.51v-5.5a4.21,4.21,0,0,0-.346-1.787,3.375,3.375,0,0,0-.91-1.205,3.678,3.678,0,0,0-1.306-.683,5.448,5.448,0,0,0-1.551-.219,6,6,0,0,0-1.475.185,3.579,3.579,0,0,0-1.315.632,3.271,3.271,0,0,0-.944,1.2,4.311,4.311,0,0,0-.362,1.88v5.5h-7.392v-9.256h-4.383a3.833,3.833,0,0,0-2.9,1.054,3.931,3.931,0,0,0-1.011,2.841v3.675a4.615,4.615,0,0,0,.3,1.753,3.134,3.134,0,0,0,.851,1.214,3.512,3.512,0,0,0,1.315.7,5.874,5.874,0,0,0,1.678.228h1.905v.691a3.277,3.277,0,0,1-.354,1.6,2.839,2.839,0,0,1-.978,1.037,4.167,4.167,0,0,1-1.475.556c-.219.041-.446.072-.677.1v2.052a9.694,9.694,0,0,0,2.641-.5,4.541,4.541,0,0,0,1.779-1.113,4.287,4.287,0,0,0,.995-1.753,8.365,8.365,0,0,0,.312-2.4v-.27h7.425a3.327,3.327,0,0,0,1.391,2.124,4.631,4.631,0,0,0,2.672.742,6.324,6.324,0,0,0,1.349-.143,3.748,3.748,0,0,0,1.2-.48,3.233,3.233,0,0,0,.927-.885,3.408,3.408,0,0,0,.539-1.357h7.442a5.355,5.355,0,0,0,1.543-.219,3.433,3.433,0,0,0,1.273-.683,3.3,3.3,0,0,0,.86-1.189,4.28,4.28,0,0,0,.32-1.737v-7.637Zm-26.972,9.256h-1.736a7.144,7.144,0,0,1-.91-.051,1.482,1.482,0,0,1-.649-.228,1.042,1.042,0,0,1-.388-.506,2.585,2.585,0,0,1-.126-.9v-3.675a1.918,1.918,0,0,1,.354-1.281,1.6,1.6,0,0,1,1.248-.4h2.209Zm15.669,1.214a2,2,0,0,1-.16.868,1.236,1.236,0,0,1-.43.506,1.71,1.71,0,0,1-.624.245,3.9,3.9,0,0,1-.725.067,3.76,3.76,0,0,1-.716-.067,1.707,1.707,0,0,1-.615-.245,1.233,1.233,0,0,1-.43-.506,1.993,1.993,0,0,1-.16-.868V137.7a2.1,2.1,0,0,1,.143-.835,1.2,1.2,0,0,1,.4-.514,1.647,1.647,0,0,1,.615-.261,3.62,3.62,0,0,1,.759-.076,3.71,3.71,0,0,1,.776.076,1.648,1.648,0,0,1,.615.261,1.2,1.2,0,0,1,.4.514,2.1,2.1,0,0,1,.143.835Z"
            transform="translate(-203.692 -115.061)" fill="#37A59B" />
        <path id="Path_207" data-name="Path 207"
            d="M61.128,134.8v7.738q0,1.517-1.618,1.517H46.985V134.8H42.6a3.833,3.833,0,0,0-2.9,1.054A3.931,3.931,0,0,0,38.69,138.7v3.675a4.615,4.615,0,0,0,.3,1.753,3.135,3.135,0,0,0,.851,1.214,3.512,3.512,0,0,0,1.315.7,5.875,5.875,0,0,0,1.678.228h1.905v.691a3.277,3.277,0,0,1-.354,1.6,2.839,2.839,0,0,1-.978,1.037,4.167,4.167,0,0,1-1.475.556c-.221.042-.45.073-.683.1V152.3h0a9.7,9.7,0,0,0,2.647-.5,4.541,4.541,0,0,0,1.779-1.113,4.288,4.288,0,0,0,.995-1.753,8.366,8.366,0,0,0,.312-2.4v-.27H59.341a5.357,5.357,0,0,0,1.543-.219,3.432,3.432,0,0,0,1.273-.683,3.293,3.293,0,0,0,.86-1.189,4.28,4.28,0,0,0,.32-1.737V134.8Zm-16.386,9.256H43.006a7.147,7.147,0,0,1-.91-.051,1.482,1.482,0,0,1-.649-.228,1.042,1.042,0,0,1-.388-.506,2.585,2.585,0,0,1-.126-.9V138.7a1.918,1.918,0,0,1,.354-1.281,1.6,1.6,0,0,1,1.248-.4h2.209Z"
            transform="translate(-33.261 -115.887)" fill="#37A59B" />
    </g>
</svg>